<?xml version="1.0" encoding="UTF-8"?>
<svg version="1.1" xmlns="http://www.w3.org/2000/svg" width="512" height="512">
<path d="M0 0 C0.64266688 -0.00350607 1.28533377 -0.00701215 1.9474754 -0.01062447 C4.10373573 -0.01993787 6.25972594 -0.0150154 8.41599751 -0.01015663 C9.97648743 -0.01389294 11.53697549 -0.01849438 13.09746057 -0.02388728 C17.38807559 -0.03613537 21.67861274 -0.03585468 25.96924126 -0.03349853 C30.59584866 -0.03309081 35.22243095 -0.04412527 39.84902668 -0.05361366 C48.9149389 -0.07023518 57.98082511 -0.07572375 67.04675128 -0.07683842 C74.41640199 -0.07778846 81.78604411 -0.08189659 89.1556921 -0.08823967 C110.04842235 -0.10585617 130.94113205 -0.11507804 151.83386978 -0.11357872 C153.52379539 -0.11345885 153.52379539 -0.11345885 155.24786091 -0.11333656 C156.3758533 -0.1132548 157.50384568 -0.11317304 158.66601966 -0.1130888 C176.94308511 -0.11227606 195.22006812 -0.1314097 213.49710973 -0.1596133 C232.26230812 -0.1883417 251.0274663 -0.20215357 269.79268724 -0.20042574 C280.32848739 -0.19976177 290.86420115 -0.20525724 301.3999815 -0.22678185 C310.37156389 -0.24499317 319.34302073 -0.24934145 328.3146136 -0.235763 C332.89105229 -0.22923278 337.46725011 -0.22911805 342.04366589 -0.2464695 C346.2365786 -0.26220315 350.42905955 -0.25933369 354.62196175 -0.24190123 C356.13544108 -0.23883195 357.64895266 -0.24246109 359.16239395 -0.25362138 C370.75426136 -0.33341137 380.04350464 1.06459993 388.73980427 9.26898766 C395.08931416 16.46698439 397.99604459 25.10918617 397.73589802 34.64789391 C396.92465116 43.38842456 393.67477465 50.02856651 387.49371052 56.25726891 C380.82546718 61.67304219 374.57343605 64.50379958 365.87999058 64.51453781 C364.91679205 64.51979692 364.91679205 64.51979692 363.93413496 64.52516228 C361.78571386 64.53445488 359.6375651 64.5295586 357.48913288 64.52469444 C355.9319047 64.52843179 354.37467839 64.53303365 352.81745505 64.53842509 C348.54050086 64.55066014 344.26362485 64.55039402 339.98665714 64.54803634 C335.37301903 64.5476283 330.75940603 64.55866613 326.14577961 64.56815147 C317.10741006 64.58476541 308.06906661 64.59026121 299.03068307 64.59137623 C291.68346284 64.59232655 284.33625121 64.59643606 276.9890337 64.60277748 C256.15754911 64.62039125 235.32608514 64.62961618 214.49459305 64.62811653 C213.37152838 64.62803662 212.24846371 64.62795671 211.09136677 64.62787437 C209.9669305 64.62779261 208.84249423 64.62771085 207.68398413 64.62762661 C189.46194763 64.62681376 171.23999379 64.64595097 153.0179812 64.67415111 C134.30699174 64.70287943 115.59604259 64.71669142 96.88503051 64.71496356 C86.38054428 64.71429962 75.87614471 64.71979351 65.37167835 64.74131966 C56.42756844 64.75953078 47.48358445 64.76387935 38.53946403 64.75030081 C33.97719498 64.74377073 29.41516755 64.74365539 24.85292149 64.76100731 C20.67300118 64.77674139 16.49351397 64.77387108 12.31360421 64.75643905 C10.80486536 64.75336987 9.29609417 64.75699846 7.78739348 64.7681592 C-3.78986953 64.84810213 -13.0679768 63.43871743 -21.75238323 55.24555016 C-28.10189312 48.04755342 -31.00862356 39.40535165 -30.74847698 29.86664391 C-29.93771906 21.13138116 -26.69120937 14.47787103 -20.50628948 8.25726891 C-14.09273194 3.1286193 -8.32652481 0.01025428 0 0 Z " fill="#000000" transform="translate(72.5062894821167,351.74273109436035)"/>
<path d="M0 0 C0.64266688 -0.00350607 1.28533377 -0.00701215 1.9474754 -0.01062447 C4.10373573 -0.01993787 6.25972594 -0.0150154 8.41599751 -0.01015663 C9.97648743 -0.01389294 11.53697549 -0.01849438 13.09746057 -0.02388728 C17.38807559 -0.03613537 21.67861274 -0.03585468 25.96924126 -0.03349853 C30.59584866 -0.03309081 35.22243095 -0.04412527 39.84902668 -0.05361366 C48.9149389 -0.07023518 57.98082511 -0.07572375 67.04675128 -0.07683842 C74.41640199 -0.07778846 81.78604411 -0.08189659 89.1556921 -0.08823967 C110.04842235 -0.10585617 130.94113205 -0.11507804 151.83386978 -0.11357872 C153.52379539 -0.11345885 153.52379539 -0.11345885 155.24786091 -0.11333656 C156.3758533 -0.1132548 157.50384568 -0.11317304 158.66601966 -0.1130888 C176.94308511 -0.11227606 195.22006812 -0.1314097 213.49710973 -0.1596133 C232.26230812 -0.1883417 251.0274663 -0.20215357 269.79268724 -0.20042574 C280.32848739 -0.19976177 290.86420115 -0.20525724 301.3999815 -0.22678185 C310.37156389 -0.24499317 319.34302073 -0.24934145 328.3146136 -0.235763 C332.89105229 -0.22923278 337.46725011 -0.22911805 342.04366589 -0.2464695 C346.2365786 -0.26220315 350.42905955 -0.25933369 354.62196175 -0.24190123 C356.13544108 -0.23883195 357.64895266 -0.24246109 359.16239395 -0.25362138 C370.75426136 -0.33341137 380.04350464 1.06459993 388.73980427 9.26898766 C395.08931416 16.46698439 397.99604459 25.10918617 397.73589802 34.64789391 C396.92465116 43.38842456 393.67477465 50.02856651 387.49371052 56.25726891 C380.82546718 61.67304219 374.57343605 64.50379958 365.87999058 64.51453781 C364.91679205 64.51979692 364.91679205 64.51979692 363.93413496 64.52516228 C361.78571386 64.53445488 359.6375651 64.5295586 357.48913288 64.52469444 C355.9319047 64.52843179 354.37467839 64.53303365 352.81745505 64.53842509 C348.54050086 64.55066014 344.26362485 64.55039402 339.98665714 64.54803634 C335.37301903 64.5476283 330.75940603 64.55866613 326.14577961 64.56815147 C317.10741006 64.58476541 308.06906661 64.59026121 299.03068307 64.59137623 C291.68346284 64.59232655 284.33625121 64.59643606 276.9890337 64.60277748 C256.15754911 64.62039125 235.32608514 64.62961618 214.49459305 64.62811653 C213.37152838 64.62803662 212.24846371 64.62795671 211.09136677 64.62787437 C209.9669305 64.62779261 208.84249423 64.62771085 207.68398413 64.62762661 C189.46194763 64.62681376 171.23999379 64.64595097 153.0179812 64.67415111 C134.30699174 64.70287943 115.59604259 64.71669142 96.88503051 64.71496356 C86.38054428 64.71429962 75.87614471 64.71979351 65.37167835 64.74131966 C56.42756844 64.75953078 47.48358445 64.76387935 38.53946403 64.75030081 C33.97719498 64.74377073 29.41516755 64.74365539 24.85292149 64.76100731 C20.67300118 64.77674139 16.49351397 64.77387108 12.31360421 64.75643905 C10.80486536 64.75336987 9.29609417 64.75699846 7.78739348 64.7681592 C-3.78986953 64.84810213 -13.0679768 63.43871743 -21.75238323 55.24555016 C-28.10189312 48.04755342 -31.00862356 39.40535165 -30.74847698 29.86664391 C-29.93771906 21.13138116 -26.69120937 14.47787103 -20.50628948 8.25726891 C-14.09273194 3.1286193 -8.32652481 0.01025428 0 0 Z " fill="#000000" transform="translate(72.5062894821167,223.74273109436035)"/>
<path d="M0 0 C0.64266688 -0.00350607 1.28533377 -0.00701215 1.9474754 -0.01062447 C4.10373573 -0.01993787 6.25972594 -0.0150154 8.41599751 -0.01015663 C9.97648743 -0.01389294 11.53697549 -0.01849438 13.09746057 -0.02388728 C17.38807559 -0.03613537 21.67861274 -0.03585468 25.96924126 -0.03349853 C30.59584866 -0.03309081 35.22243095 -0.04412527 39.84902668 -0.05361366 C48.9149389 -0.07023518 57.98082511 -0.07572375 67.04675128 -0.07683842 C74.41640199 -0.07778846 81.78604411 -0.08189659 89.1556921 -0.08823967 C110.04842235 -0.10585617 130.94113205 -0.11507804 151.83386978 -0.11357872 C153.52379539 -0.11345885 153.52379539 -0.11345885 155.24786091 -0.11333656 C156.3758533 -0.1132548 157.50384568 -0.11317304 158.66601966 -0.1130888 C176.94308511 -0.11227606 195.22006812 -0.1314097 213.49710973 -0.1596133 C232.26230812 -0.1883417 251.0274663 -0.20215357 269.79268724 -0.20042574 C280.32848739 -0.19976177 290.86420115 -0.20525724 301.3999815 -0.22678185 C310.37156389 -0.24499317 319.34302073 -0.24934145 328.3146136 -0.235763 C332.89105229 -0.22923278 337.46725011 -0.22911805 342.04366589 -0.2464695 C346.2365786 -0.26220315 350.42905955 -0.25933369 354.62196175 -0.24190123 C356.13544108 -0.23883195 357.64895266 -0.24246109 359.16239395 -0.25362138 C370.75426136 -0.33341137 380.04350464 1.06459993 388.73980427 9.26898766 C395.08931416 16.46698439 397.99604459 25.10918617 397.73589802 34.64789391 C396.92465116 43.38842456 393.67477465 50.02856651 387.49371052 56.25726891 C380.82546718 61.67304219 374.57343605 64.50379958 365.87999058 64.51453781 C364.91679205 64.51979692 364.91679205 64.51979692 363.93413496 64.52516228 C361.78571386 64.53445488 359.6375651 64.5295586 357.48913288 64.52469444 C355.9319047 64.52843179 354.37467839 64.53303365 352.81745505 64.53842509 C348.54050086 64.55066014 344.26362485 64.55039402 339.98665714 64.54803634 C335.37301903 64.5476283 330.75940603 64.55866613 326.14577961 64.56815147 C317.10741006 64.58476541 308.06906661 64.59026121 299.03068307 64.59137623 C291.68346284 64.59232655 284.33625121 64.59643606 276.9890337 64.60277748 C256.15754911 64.62039125 235.32608514 64.62961618 214.49459305 64.62811653 C213.37152838 64.62803662 212.24846371 64.62795671 211.09136677 64.62787437 C209.9669305 64.62779261 208.84249423 64.62771085 207.68398413 64.62762661 C189.46194763 64.62681376 171.23999379 64.64595097 153.0179812 64.67415111 C134.30699174 64.70287943 115.59604259 64.71669142 96.88503051 64.71496356 C86.38054428 64.71429962 75.87614471 64.71979351 65.37167835 64.74131966 C56.42756844 64.75953078 47.48358445 64.76387935 38.53946403 64.75030081 C33.97719498 64.74377073 29.41516755 64.74365539 24.85292149 64.76100731 C20.67300118 64.77674139 16.49351397 64.77387108 12.31360421 64.75643905 C10.80486536 64.75336987 9.29609417 64.75699846 7.78739348 64.7681592 C-3.78986953 64.84810213 -13.0679768 63.43871743 -21.75238323 55.24555016 C-28.10189312 48.04755342 -31.00862356 39.40535165 -30.74847698 29.86664391 C-29.93771906 21.13138116 -26.69120937 14.47787103 -20.50628948 8.25726891 C-14.09273194 3.1286193 -8.32652481 0.01025428 0 0 Z " fill="#000000" transform="translate(72.5062894821167,95.74273109436035)"/>
</svg>
