<?xml version="1.0" encoding="UTF-8"?>
<svg version="1.1" xmlns="http://www.w3.org/2000/svg" width="512" height="512">
<path d="M0 0 C3.92042299 2.60882682 7.12465695 5.71232975 10.41511273 9.06195903 C11.49373627 10.13545602 11.49373627 10.13545602 12.59415019 11.23063982 C14.97727358 13.60722703 17.34590852 15.99772617 19.71476483 18.38852763 C21.429644 20.10453619 23.14540662 21.81966225 24.86198163 23.53397441 C28.54337671 27.21446155 32.21861801 30.90097452 35.88824582 34.59318995 C41.19378562 39.9313654 46.51045747 45.2583404 51.82983081 50.58272691 C60.46176435 59.22339504 69.08474443 67.87294068 77.70206952 76.52817607 C86.06844935 84.93132365 94.43905851 93.3302212 102.81535077 101.72348857 C103.33246077 102.24164946 103.84957076 102.75981035 104.38235076 103.29367308 C106.97680377 105.89334659 109.57133972 108.4929373 112.16591692 111.09248686 C133.65910334 132.62707811 155.13759739 154.1762696 176.60685468 175.73471904 C179.4796076 174.43180573 181.53673142 173.05237484 183.75730062 170.81919551 C184.35824186 170.21976957 184.9591831 169.62034362 185.57833469 169.00275326 C186.22910523 168.34342855 186.87987578 167.68410385 187.55036664 167.0047996 C188.24909969 166.30495314 188.94783273 165.60510668 189.66773951 164.88405275 C192.01370252 162.53200587 194.35243579 160.17289795 196.69132733 157.8138206 C198.36979307 156.12824396 200.04872913 154.44313555 201.72810102 152.75846171 C205.34742809 149.1260203 208.96372406 145.49059683 212.57782102 141.85295177 C217.8119353 136.584861 223.05348702 131.32421883 228.29726569 126.06574962 C236.8164916 117.5226268 245.33270974 108.97651379 253.84562421 100.42710185 C254.35512484 99.91542098 254.86462547 99.4037401 255.38956551 98.87655374 C262.61126756 91.6236668 269.82996 84.36779184 277.04742984 77.11069366 C277.55511133 76.60022555 278.06279281 76.08975744 278.58585858 75.5638206 C279.0929169 75.05397523 279.59997521 74.54412985 280.12239893 74.01883462 C288.5926233 65.50245843 297.07062657 56.99387503 305.55498278 48.49157763 C310.31520825 43.72072031 315.07145978 38.94602839 319.81811643 34.16166759 C324.2862258 29.65853775 328.76351152 25.16474044 333.24790311 20.67782664 C334.88883358 19.03261384 336.52633515 17.38397253 338.16006207 15.73160625 C340.39796463 13.46917315 342.64805645 11.21957189 344.90144086 8.97257304 C345.53882707 8.32217122 346.17621329 7.6717694 346.83291423 7.00165844 C357.48378626 -3.53294652 369.61973176 -8.63093165 384.48185468 -8.82778096 C399.52966816 -8.7045722 411.17215918 -3.81532273 421.89201093 7.05112529 C433.25801893 20.28668227 434.81963261 34.9937571 433.60685468 51.73471904 C431.39538695 62.98161204 424.30639151 72.65799878 416.27961469 80.54297709 C415.56395003 81.26205945 414.84828537 81.98114181 414.1109339 82.72201455 C411.73434669 85.10513794 409.34384755 87.47377288 406.95304608 89.84262919 C405.23703753 91.55750836 403.52191146 93.27327098 401.80759931 94.98984599 C398.12711216 98.67124107 394.4405992 102.34648237 390.74838376 106.01611018 C385.41020831 111.32164998 380.08323332 116.63832183 374.7588468 121.95769517 C366.11817867 130.58962871 357.46863304 139.2126088 348.81339765 147.82993388 C340.41025006 156.19631371 332.01135251 164.56692287 323.61808515 172.94321513 C323.09992426 173.46032513 322.58176337 173.97743512 322.04790063 174.51021512 C319.44822712 177.10466813 316.84863642 179.69920408 314.24908686 182.29378128 C292.71449561 203.7869677 271.16530411 225.26546175 249.60685468 246.73471904 C250.90976799 249.60747196 252.28919887 251.66459579 254.52237821 253.88516498 C255.12180415 254.48610622 255.72123009 255.08704746 256.33882046 255.70619905 C256.99814516 256.35696959 257.65746987 257.00774014 258.33677411 257.678231 C259.3865438 258.72633057 259.3865438 258.72633057 260.45752096 259.79560387 C262.80956784 262.14156688 265.16867576 264.48030015 267.52775311 266.81919169 C269.21332976 268.49765743 270.89843817 270.17659349 272.583112 271.85596538 C276.21555342 275.47529245 279.85097689 279.09158842 283.48862195 282.70568538 C288.75671271 287.93979967 294.01735489 293.18135138 299.2758241 298.42513005 C307.81894692 306.94435596 316.36505993 315.46057411 324.91447186 323.97348857 C325.42615274 324.4829892 325.93783361 324.99248983 326.46501997 325.51742987 C333.71790691 332.73913192 340.97378187 339.95782436 348.23088005 347.17529421 C348.74134816 347.68297569 349.25181627 348.19065717 349.77775311 348.71372294 C350.54252117 349.47431041 350.54252117 349.47431041 351.32273909 350.25026329 C359.83911529 358.72048766 368.34769869 367.19849093 376.84999609 375.68284714 C381.6208534 380.44307261 386.39554533 385.19932414 391.17990613 389.94598079 C395.68303597 394.41409016 400.17683327 398.89137588 404.66374707 403.37576747 C406.30895988 405.01669794 407.95760119 406.65419951 409.60996747 408.28792644 C411.87240057 410.525829 414.12200182 412.77592081 416.36900067 415.02930522 C417.01940249 415.66669143 417.66980431 416.30407765 418.33991528 416.96077859 C428.80773249 427.54412577 433.95306503 439.93383904 434.10685468 454.73471904 C433.98083778 466.85371905 430.93732691 476.04087051 423.60685468 485.73471904 C422.98810468 486.62159404 422.36935468 487.50846904 421.73185468 488.42221904 C413.72687299 497.13352264 401.85378563 503.49929231 389.97013593 504.07065654 C371.97441317 504.3947602 358.93728276 499.96652389 345.82668006 487.39496315 C342.00880954 483.65054076 338.24086171 479.85798228 334.47721601 476.05918193 C332.77204158 474.35287781 331.0659831 472.64745678 329.35911298 470.94284892 C325.22689518 466.81165607 321.10390899 462.67141897 316.98498736 458.52697266 C312.18704478 453.70030295 307.37768399 448.88507712 302.56763967 444.07047229 C293.99171907 435.48582127 285.42474858 426.89229667 276.86344647 418.29306865 C268.55241064 409.94525418 260.23713744 401.60169795 251.91618085 393.26377177 C251.40232057 392.7488606 250.8884603 392.23394943 250.3590285 391.70343489 C247.78083023 389.12001605 245.20254897 386.53668006 242.62422645 383.95338523 C221.27222198 362.55998895 199.93491118 341.15199181 178.60685468 319.73471904 C175.73410176 321.03763235 173.67697793 322.41706323 171.45640874 324.65024257 C170.85546749 325.24966851 170.25452625 325.84909445 169.63537467 326.46668482 C168.65921885 327.45567188 168.65921885 327.45567188 167.66334271 328.46463847 C166.96460967 329.16448493 166.26587662 329.86433139 165.54596984 330.58538532 C163.20000683 332.9374322 160.86127357 335.29654013 158.52238202 337.65561748 C156.84391629 339.34119412 155.16498022 341.02630253 153.48560834 342.71097636 C149.86628127 346.34341778 146.24998529 349.97884125 142.63588834 353.61648631 C137.40177405 358.88457708 132.16022233 364.14521925 126.91644366 369.40368846 C118.39721776 377.94681128 109.88099961 386.49292429 101.36808515 395.04233623 C100.85858452 395.5540171 100.34908389 396.06569798 99.82414384 396.59288433 C92.60244179 403.84577127 85.38374936 411.10164623 78.16627951 418.35874441 C77.65859803 418.86921252 77.15091654 419.37968063 76.62785077 419.90561748 C75.8672633 420.67038554 75.8672633 420.67038554 75.09131043 421.45060346 C66.62108606 429.96697965 58.14308278 438.47556305 49.65872657 446.97786045 C44.8985011 451.74871776 40.14224957 456.52340969 35.39559293 461.30777049 C30.92748356 465.81090033 26.45019784 470.30469763 21.96580625 474.79161143 C20.32487577 476.43682424 18.6873742 478.08546555 17.05364728 479.73783183 C14.81574472 482.00026493 12.5656529 484.24986618 10.3122685 486.49686503 C9.35618918 487.47246776 9.35618918 487.47246776 8.38079512 488.46777964 C-2.20255205 498.93559685 -14.59226532 504.0809294 -29.39314532 504.23471904 C-41.51214533 504.10870214 -50.69929679 501.06519127 -60.39314532 493.73471904 C-61.28002032 493.11596904 -62.16689532 492.49721904 -63.08064532 491.85971904 C-71.05161673 484.53504261 -77.61679378 473.35703864 -78.59773517 462.46250224 C-78.69718657 459.94517026 -78.72201163 457.44144366 -78.70564532 454.92221904 C-78.70073077 454.03365214 -78.69581622 453.14508525 -78.69075274 452.22959208 C-78.57881151 445.97753055 -78.05125116 440.47063163 -75.39314532 434.73471904 C-74.90007892 433.62676982 -74.90007892 433.62676982 -74.39705157 432.49643779 C-67.94062087 419.56123579 -55.14515289 409.34885497 -45.04133868 399.26938701 C-43.3944969 397.62282771 -41.7478761 395.97604737 -40.10145831 394.32906413 C-35.65602168 389.88334191 -31.20751999 385.44069838 -26.75844145 380.99862123 C-22.57289601 376.81871244 -18.38967492 372.6364798 -14.2064336 368.45426525 C-5.92761154 360.17762496 2.35343527 351.90321437 10.63590741 343.63022685 C18.6754992 335.59983191 26.71402673 327.56837407 34.75114179 319.53550029 C35.49583741 318.79119875 35.49583741 318.79119875 36.25557739 318.03186081 C38.74649884 315.54224452 41.23739955 313.05260749 43.72828996 310.56296015 C64.35126521 289.95033023 84.97790001 269.34136477 105.60685468 248.73471904 C104.30394137 245.86196612 102.92451048 243.80484229 100.69133115 241.5842731 C100.09190521 240.98333186 99.49247926 240.38239061 98.8748889 239.76323903 C97.88590184 238.78708321 97.88590184 238.78708321 96.87693524 237.79120708 C96.17708878 237.09247403 95.47724232 236.39374098 94.75618839 235.6738342 C92.40414151 233.32787119 90.04503359 230.98913793 87.68595624 228.65024638 C86.0003796 226.97178065 84.31527119 225.29284458 82.63059735 223.6134727 C78.99815593 219.99414563 75.36273247 216.37784965 71.7250874 212.7637527 C66.45699664 207.52963841 61.19635447 202.28808669 55.93788525 197.04430802 C47.39476244 188.52508212 38.84864942 180.00886397 30.29923749 171.49594951 C29.78755661 170.98644888 29.27587574 170.47694825 28.74868938 169.9520082 C21.49580244 162.73030616 14.23992748 155.51161372 6.9828293 148.29414387 C6.47236119 147.78646239 5.96189308 147.2787809 5.43595624 146.75571513 C4.92611087 146.24865682 4.41626549 145.7415985 3.89097026 145.21917479 C-4.62540593 136.74895042 -13.13398934 128.27094714 -21.63628674 119.78659093 C-26.40714405 115.02636546 -31.18183597 110.27011393 -35.96619678 105.52345729 C-40.46932661 101.05534792 -44.96312392 96.5780622 -49.45003772 92.09367061 C-51.09525052 90.45274013 -52.74389183 88.81523856 -54.39625812 87.18151164 C-56.65869121 84.94360908 -58.90829247 82.69351726 -61.15529132 80.44013286 C-61.80569314 79.80274664 -62.45609496 79.16536043 -63.12620592 78.50865948 C-74.58400598 66.92440335 -78.68417409 54.3853744 -78.71003985 38.46787333 C-78.5440467 27.16087033 -75.18199475 18.7123232 -68.39314532 9.73471904 C-67.77439532 8.84784404 -67.15564532 7.96096904 -66.51814532 7.04721904 C-48.88894736 -12.13749639 -21.25664785 -12.84782786 0 0 Z " fill="#000000" transform="translate(78.39314532279968,8.265280961990356)"/>
</svg>
